# xmcd
#
# Track frame offsets:
#	150
#	10062
#	20332
#	31245
#	43477
#	53525
#	64430
#	77247
#	85205
#	96350
#	107855
#	117850
#	128035
#	138185
#	150652
#	162640
#	170897
#	181250
#
# Disc length: 2537 seconds
#
# Revision: 2
# Processed by: cddbd v1.5.1PL2 Copyright (c) Steve Scherf et al.
# Submitted via: audiograbber 1.83.01
#
DISCID=f209e712
DTITLE=Johnny Cash - The Legend
DYEAR=1900
DGENRE=Country
TTITLE0=Just About Time
TTITLE1=Straight A's In Love
TTITLE2=I Just Thought You'd Like To Know
TTITLE3=You're The Nearest Thing To Heaven
TTITLE4=Rock Island Line
TTITLE5=Cold Cold Heart
TTITLE6=Folsom Prison Blues
TTITLE7=Hey Good Lookin'
TTITLE8=I Love You Because 
TTITLE9=Big River
TTITLE10=Ballad Of A Teenage Queen
TTITLE11=Goodbye Little Darling
TTITLE12=I Could Never Be Ashamed Of You
TTITLE13=Next In Line
TTITLE14=Port Of Lonely Hearts
TTITLE15=Sugartime
TTITLE16=There You Go
TTITLE17=Two Timin' Woman
EXTD=
EXTT0=
EXTT1=
EXTT2=
EXTT3=
EXTT4=
EXTT5=
EXTT6=
EXTT7=
EXTT8=
EXTT9=
EXTT10=
EXTT11=
EXTT12=
EXTT13=
EXTT14=
EXTT15=
EXTT16=
EXTT17=
PLAYORDER=
